<svg width="222" height="46" viewBox="0 0 222 46" fill="none" xmlns="http://www.w3.org/2000/svg">
<g filter="url(#filter0_d_60_25)">
<path d="M29.2361 0H4.76826C4.34378 0 4 0.343775 4 0.768263V3.84729C4 4.27178 4.34378 4.61556 4.76826 4.61556H12.2297C12.6542 4.61556 12.9979 4.95933 12.9979 5.38382V19.9659C12.995 20.3904 13.3387 20.7341 13.7632 20.7341H18.1336C18.5581 20.7341 18.9019 20.3904 18.9019 19.9659V5.38382C18.9049 4.95933 19.2487 4.61556 19.6732 4.61556H29.2361C29.6606 4.61556 30.0044 4.27178 30.0044 3.84729V0.768263C30.0044 0.343775 29.6606 0 29.2361 0Z" fill="#0A64B0"/>
<path d="M96.8192 8.42991L83.4598 8.42393C82.4882 8.36713 81.7319 7.62278 81.7319 6.56156C81.7319 5.26717 82.8589 4.74105 83.5046 4.74105H100.687C101.115 4.74105 101.459 4.39428 101.456 3.96681L101.438 0.765214C101.438 0.343716 101.091 0.00292969 100.669 0.00292969H82.3238C79.1372 0.00292969 76.106 2.86374 76.106 6.38519C76.106 11.4013 80.6139 12.9588 82.4344 12.9588H95.6683C97.0852 12.9588 97.4409 14.1157 97.4409 14.5641C97.4409 15.5475 96.6906 16.25 95.8267 16.25H77.1941C76.7756 16.25 76.4318 16.5878 76.4258 17.0064L76.378 19.9509C76.372 20.3813 76.7158 20.7311 77.1462 20.7311H96.6308C101.258 20.7311 102.858 16.7134 102.858 14.8779C102.858 11.3475 100.302 8.42991 96.8162 8.42991H96.8192Z" fill="#2183C6"/>
<path d="M52.4275 11.9065H53.8445C55.9699 11.9065 61.6287 11.4193 61.557 6.50477C61.5331 4.74105 60.8844 3.21648 59.5302 1.9191C58.1969 0.636672 56.1612 0.00292969 53.7428 0.00292969H35.1042C34.6797 0.00292969 34.336 0.346705 34.336 0.771193V19.9628C34.333 20.3873 34.6767 20.7311 35.1012 20.7311H39.5045C39.929 20.7311 40.2758 20.3843 40.2728 19.9598L40.2399 12.6748C40.2399 12.2503 40.5837 11.9035 41.0082 11.9035H44.4938C44.7 11.9035 44.8943 11.9842 45.0378 12.1307L53.3482 20.5039C53.4917 20.6504 53.689 20.7311 53.8923 20.7311H59.7365C60.43 20.7311 60.7678 19.8851 60.2686 19.4068L52.4245 11.9065H52.4275ZM50.8671 8.18179H40.2878L40.2728 4.61251H53.4379C54.5918 4.61251 55.5155 4.8666 55.7457 6.19686C56.1104 8.30136 53.7667 8.18179 53.2675 8.18179H50.8671Z" fill="#0A64B0"/>
<path d="M71.7837 0.771193V19.9658C71.7807 20.3903 71.4369 20.7341 71.0124 20.7341H66.6569C66.2324 20.7341 65.8887 20.3903 65.8887 19.9658V0.771193C65.8917 0.346705 66.2354 0.00292969 66.6599 0.00292969H71.0154C71.4399 0.00292969 71.7837 0.346705 71.7837 0.771193Z" fill="#0A64B0"/>
<path d="M168.752 20.4232H164.51C164.247 20.4232 164.002 20.2887 163.861 20.0674L158.074 10.932C157.661 10.2833 156.657 10.5733 156.657 11.3445V19.9718C156.657 20.3963 156.31 20.74 155.886 20.74H151.686C151.261 20.74 150.917 20.3963 150.917 19.9718V0.771193C150.92 0.346705 151.264 0.00292969 151.689 0.00292969H156.564C156.827 0.00292969 157.07 0.13745 157.213 0.358662L166.133 14.292C166.435 14.7643 167.126 14.7643 167.428 14.292L176.369 0.355673C176.509 0.134461 176.754 0.00292969 177.015 0.00292969H181.72C182.144 0.00292969 182.488 0.346705 182.488 0.771193V19.9658C182.485 20.3903 182.141 20.7341 181.717 20.7341H177.361C176.937 20.7341 176.593 20.3903 176.593 19.9658V11.3445C176.593 10.5733 175.589 10.2833 175.176 10.932L169.401 20.0615C169.26 20.2827 169.015 20.4202 168.752 20.4202V20.4232Z" fill="#2183C6"/>
<path d="M145.812 8.18173H133.648C133.224 8.18173 132.88 8.52551 132.88 8.94999V11.5986C132.88 12.023 133.224 12.3668 133.648 12.3668H140.664V13.8316C140.664 14.6327 140.491 15.1947 140.126 15.5415C139.8 15.8673 139.172 16.0318 138.21 16.0497H126.922C125.876 16.0348 125.021 15.7567 124.339 15.1947C123.667 14.6327 123.329 13.8794 123.329 12.9468L123.335 9.98132V7.87383C123.335 7.87383 123.386 4.63935 127.027 4.61544H145.803C146.224 4.61544 146.568 4.27166 146.571 3.85016L146.583 0.777112C146.583 0.352624 146.239 0.00585938 145.815 0.00585938H126.088C118.857 0.00585938 117.407 4.67821 117.407 7.85589L117.401 13.8346C117.401 15.6551 118.118 17.2484 119.571 18.6504C121.06 20.0435 122.997 20.734 125.406 20.734H139.615C141.552 20.7011 143.196 20.1092 144.541 18.9434C145.895 17.7955 146.568 16.3935 146.568 14.7523L146.577 8.94999C146.577 8.52551 146.233 8.17874 145.809 8.17874L145.812 8.18173Z" fill="#2183C6"/>
<path d="M113.082 0.771193V19.9658C113.079 20.3903 112.735 20.7341 112.31 20.7341H107.955C107.53 20.7341 107.187 20.3903 107.187 19.9658V0.771193C107.19 0.346705 107.533 0.00292969 107.958 0.00292969H112.313C112.738 0.00292969 113.082 0.346705 113.082 0.771193Z" fill="#2183C6"/>
<path d="M43.3161 37.1516L37.8426 32.3507C37.7021 32.2282 37.5257 32.1594 37.3433 32.1594C36.9218 32.1594 36.5811 32.5002 36.5811 32.9217V37.1516H35.1372V29.8486H36.8651L42.3385 34.6675C42.479 34.79 42.6554 34.8588 42.8408 34.8588C43.2623 34.8588 43.603 34.518 43.603 34.0965V29.8486H45.0529V37.1516H43.3191H43.3161Z" fill="white"/>
<path d="M121.966 37.1516V31.5256C121.966 31.1071 121.625 30.7663 121.206 30.7663H118.402V29.8516H127.795V30.7663H124.157C123.738 30.7663 123.398 31.1071 123.398 31.5256V37.1516H121.969H121.966Z" fill="white"/>
<path d="M140.129 29.8486H138.706V37.1516H140.129V29.8486Z" fill="white"/>
<path d="M78.067 37.1516V29.8486H79.4959V35.4477C79.4959 35.8662 79.8366 36.207 80.2552 36.207H86.2608V37.1486H78.064L78.067 37.1516Z" fill="white"/>
<path d="M153.76 37.1517C152.914 37.1517 152.26 36.9215 151.757 36.4462C151.276 35.9858 151.04 35.4687 151.04 34.8738V32.5092C151.04 31.2925 151.557 29.8487 154.023 29.8487H155.126V29.8756L155.611 29.8577L155.742 29.8457H160.373V30.7604H154.388C152.84 30.7784 152.484 32.022 152.475 32.5002V34.521C152.475 35.0203 152.669 35.4507 153.034 35.7616C153.396 36.0516 153.835 36.2011 154.346 36.207H160.37L160.376 37.1487H153.754L153.76 37.1517Z" fill="white"/>
<path d="M22.5938 37.1517L19.2398 31.7081C19.0993 31.4839 18.8571 31.3464 18.5911 31.3464C18.325 31.3464 18.0829 31.4809 17.9424 31.7081L14.5943 37.1487H13.0249L17.5807 29.8457H19.6642L24.217 37.1487H22.5878L22.5938 37.1517Z" fill="white"/>
<path d="M65.5269 37.1517L62.1729 31.7081C62.0324 31.4839 61.7902 31.3464 61.5242 31.3464C61.2581 31.3464 61.016 31.4809 60.8755 31.7081L57.5274 37.1487H55.958L60.5138 29.8457H62.5974L67.1501 37.1487H65.5209L65.5269 37.1517Z" fill="white"/>
<path d="M206.137 29.7261H194.365C193.832 29.7261 193.399 30.1584 193.399 30.6916V30.6946C193.399 31.2279 193.832 31.6602 194.365 31.6602H206.137C206.67 31.6602 207.103 31.2279 207.103 30.6946V30.6916C207.103 30.1584 206.67 29.7261 206.137 29.7261Z" fill="#0A64B0"/>
<path d="M208.239 32.5332H196.469C195.934 32.5332 195.504 32.9667 195.504 33.5018C195.504 34.0368 195.937 34.4673 196.469 34.4673H208.239C208.774 34.4673 209.207 34.0339 209.207 33.5018C209.207 32.9696 208.774 32.5332 208.239 32.5332Z" fill="#0A64B0"/>
<path d="M206.137 35.1489H194.368C193.833 35.1489 193.399 35.5824 193.399 36.1175C193.399 36.6526 193.833 37.083 194.368 37.083H206.137C206.672 37.083 207.103 36.6496 207.103 36.1175C207.103 35.5854 206.669 35.1489 206.137 35.1489Z" fill="#0A64B0"/>
<path d="M180.859 37.1517L177.505 31.7081C177.364 31.4839 177.122 31.3464 176.856 31.3464C176.59 31.3464 176.348 31.4809 176.208 31.7081L172.859 37.1487H171.29L175.846 29.8457H177.929L182.482 37.1487H180.853L180.859 37.1517Z" fill="white"/>
<path d="M101.62 37.1397V34.8678C101.62 34.6764 101.548 34.4911 101.417 34.3506L97.1748 29.8486H99.0431L101.763 32.8948C101.91 33.0562 102.116 33.1489 102.331 33.1489C102.547 33.1489 102.756 33.0562 102.899 32.8948L105.626 29.8486H107.488L103.246 34.3476C103.115 34.4881 103.04 34.6734 103.04 34.8678V37.1397H101.62Z" fill="white"/>
<path d="M217.876 19.5593L205.907 0.364641C205.766 0.14044 205.518 0.00292969 205.255 0.00292969H199.566C199.3 0.00292969 199.055 0.14044 198.915 0.364641L186.936 19.5622C186.617 20.0734 186.984 20.7371 187.588 20.7371H192.455C192.721 20.7371 192.969 20.5995 193.109 20.3724L194.766 17.6819L195.719 16.1305H208.956L209.913 17.6819L211.554 20.3694C211.694 20.5966 211.942 20.7371 212.211 20.7371H217.23C217.834 20.7371 218.202 20.0734 217.882 19.5622L217.876 19.5593ZM201.668 6.45096C201.967 5.96369 202.675 5.96369 202.977 6.45096L206.062 11.4462H198.598L201.671 6.45096H201.668Z" fill="#2183C6"/>
</g>
<defs>
<filter id="filter0_d_60_25" x="0" y="0" width="222" height="45.1519" filterUnits="userSpaceOnUse" color-interpolation-filters="sRGB">
<feFlood flood-opacity="0" result="BackgroundImageFix"/>
<feColorMatrix in="SourceAlpha" type="matrix" values="0 0 0 0 0 0 0 0 0 0 0 0 0 0 0 0 0 0 127 0" result="hardAlpha"/>
<feOffset dy="4"/>
<feGaussianBlur stdDeviation="2"/>
<feComposite in2="hardAlpha" operator="out"/>
<feColorMatrix type="matrix" values="0 0 0 0 1 0 0 0 0 1 0 0 0 0 1 0 0 0 0.25 0"/>
<feBlend mode="normal" in2="BackgroundImageFix" result="effect1_dropShadow_60_25"/>
<feBlend mode="normal" in="SourceGraphic" in2="effect1_dropShadow_60_25" result="shape"/>
</filter>
</defs>
</svg>
