<svg width="110" height="63" viewBox="0 0 110 63" fill="none" xmlns="http://www.w3.org/2000/svg">
<path fill-rule="evenodd" clip-rule="evenodd" d="M2.17042 2.1994C0.346768 4.0488 0 8.7318 0 31.521C0 57.9586 0.0773664 58.6964 3.07119 60.8202C5.71272 62.6962 13.1248 63 56.1615 63C100.543 63 106.436 62.7424 108.433 60.7194C111.254 57.8606 111.433 58.2876 98.8833 37.9652C89.2815 22.4168 88.4194 20.412 88.4194 13.622C88.4194 9.191 87.5573 4.9742 86.2683 3.1122C84.131 0.0181992 83.8824 0 44.2304 0C9.81041 0 4.0438 0.300999 2.17042 2.1994ZM84.8177 5.0148C85.2791 6.2328 85.6563 8.862 85.6563 10.8584V14.4886L82.1402 11.1412C77.3172 6.5492 75.7602 7.8302 64.8501 25.347L55.7871 39.9L29.2751 40.2808L2.76311 40.6602V22.6632C2.76311 12.7652 3.17757 4.2462 3.6846 3.7338C4.19025 3.22 22.464 2.8 44.2926 2.8C79.2072 2.8 84.0799 3.066 84.8177 5.0148ZM93.8351 34.2538C101.615 46.9336 107.583 57.9586 107.098 58.7538C106.538 59.6722 95.9336 60.2 78.0577 60.2C60.1818 60.2 49.577 59.6722 49.0175 58.7538C47.9095 56.9366 75.839 11.2 78.0577 11.2C78.9544 11.2 86.0542 21.574 93.8351 34.2538ZM16.5786 15.3734C10.171 16.191 11.3218 16.38 23.9133 16.5718C32.1266 16.6978 38.5315 16.2848 38.1474 15.6534C37.2771 14.2268 26.6419 14.0896 16.5786 15.3734ZM74.6039 33.2052C74.6039 44.639 74.6522 44.8 78.0577 44.8C81.4702 44.8 81.5116 44.6586 81.5116 32.9154C81.5116 21.0952 81.4937 21.0336 78.0577 21.3206C74.6743 21.6048 74.6039 21.8484 74.6039 33.2052ZM78.3755 37.4192C78.0757 40.3228 77.827 38.29 77.8201 32.9C77.8146 27.51 78.0591 25.1328 78.3644 27.6192C78.6698 30.1042 78.6739 34.5142 78.3755 37.4192ZM51.6811 46.9L49.4181 50.4H26.0906H2.76311V46.9V43.4H28.3536H53.9441L51.6811 46.9ZM74.8525 50.75C75.1426 52.8178 76.2438 53.9 78.0577 53.9C79.8717 53.9 80.9728 52.8178 81.2629 50.75C81.6249 48.1656 81.0488 47.6 78.0577 47.6C75.0667 47.6 74.4906 48.1656 74.8525 50.75ZM78.7485 50.4C78.7485 51.17 78.0895 51.8 77.2854 51.8C76.4814 51.8 76.2065 51.17 76.6762 50.4C77.1459 49.63 77.8035 49 78.1393 49C78.475 49 78.7485 49.63 78.7485 50.4ZM46.481 56.7322L46.282 60.2658L24.868 59.8822C3.84348 59.507 3.44559 59.4426 3.01179 56.35L2.57107 53.2H24.6262H46.6799L46.481 56.7322Z" fill="url(#paint0_linear_37_52)"/>
<defs>
<linearGradient id="paint0_linear_37_52" x1="9.7229" y1="12.7683" x2="87.0924" y2="15.3224" gradientUnits="userSpaceOnUse">
<stop stop-color="#0A64B0"/>
<stop offset="1" stop-color="#2183C6"/>
</linearGradient>
</defs>
</svg>
