<svg width="94" height="101" viewBox="0 0 94 101" fill="none" xmlns="http://www.w3.org/2000/svg">
<path fill-rule="evenodd" clip-rule="evenodd" d="M9.54856 0.639249C8.99238 0.990736 8.29583 1.66529 8.00103 2.13801L7.46468 2.99752L7.4063 39.3564L7.34815 75.7152H4.10513C2.29556 75.7152 0.671377 75.8169 0.430947 75.945C0.059273 76.1433 0 76.4226 0 77.9793C0 79.4847 0.0886829 79.9344 0.535227 80.6915C1.13708 81.7118 1.97669 82.3972 3.09706 82.7822C4.2034 83.1624 56.6173 83.1564 56.999 82.776C57.4025 82.3739 57.3203 81.7546 56.8283 81.4922C56.5277 81.3319 48.8442 81.2773 32.3174 81.3179C19.0773 81.3505 8.24458 81.2972 8.24458 81.1995C8.24458 81.1021 8.39944 80.7237 8.58862 80.3593C8.89322 79.772 8.94648 75.347 9.05499 41.569C9.1693 5.98083 9.20295 3.40474 9.56104 2.8865C9.77183 2.5812 10.3184 2.14623 10.7754 1.91997C11.8336 1.39596 12.9112 1.57292 13.8721 2.42822C14.524 3.00885 14.5835 3.1807 14.6555 4.69234C14.7181 6.00859 14.9202 7.02375 15.2349 7.60194C15.2507 7.63102 24.8396 7.70585 36.5435 7.76847L57.8235 7.88237L57.9349 12.2761C58.0487 16.7681 58.116 17.0821 58.9661 17.0936C59.5929 17.1021 59.7092 16.3927 59.7683 12.1953L59.8289 7.88237L60.4974 7.85684C60.865 7.84263 62.294 7.81776 63.6726 7.80133C66.9221 7.76247 67.0707 7.64435 67.0707 5.09801C67.0707 2.60984 66.3568 1.31225 64.4637 0.359037C63.8186 0.034417 61.208 0 37.1552 0H10.5602L9.54856 0.639249ZM64.2083 2.10937C65.1027 2.78081 65.3358 3.28551 65.4593 4.81735L65.572 6.21708H41.0558H16.5395L16.4511 4.71832C16.4025 3.89389 16.1908 2.8794 15.9804 2.46374C15.7699 2.04808 15.5978 1.67217 15.5978 1.62821C15.5978 1.58424 26.402 1.5747 39.6074 1.60689C63.2245 1.6644 63.6265 1.67262 64.2083 2.10937ZM20.041 15.2403C18.8879 16.3363 18.6365 16.4839 18.3145 16.2535C17.3992 15.5982 16.9569 15.4701 16.6073 15.7592C16.4196 15.9144 16.2663 16.2159 16.2663 16.4297C16.2663 16.8312 18.0866 18.6512 18.4881 18.6512C18.7219 18.6512 21.9219 15.9146 22.4925 15.2267C22.7278 14.943 22.7515 14.7403 22.5812 14.4694C22.1026 13.7084 21.4419 13.9089 20.041 15.2403ZM68.9648 14.2538C68.7197 14.3921 67.6844 15.2891 66.6643 16.247C65.2901 17.5371 64.3084 18.2325 62.8763 18.9303C60.9542 19.8669 60.9288 19.8725 58.4919 19.8651C56.5712 19.8596 55.6794 19.7466 54.3705 19.3427C51.2278 18.373 48.8923 19.1333 47.6164 21.5411C47.0262 22.6548 46.9807 22.9013 47.0832 24.4243C47.3651 28.613 49.5481 35.8259 52.0518 40.8411C55.3249 47.3973 59.3737 52.39 64.8982 56.6822C66.2443 57.7281 66.6273 58.1506 66.6356 58.5987C66.6777 60.909 66.591 72.7148 66.5315 72.7738C66.4905 72.8147 65.5791 71.2862 64.506 69.3771C62.2236 65.3156 61.5094 64.6133 59.662 64.6133C58.2268 64.6133 57.1385 65.1457 56.4475 66.1864C55.7423 67.2484 55.5771 68.4723 55.9858 69.6091C56.1614 70.0976 57.682 73.8836 59.3645 78.0226C61.0471 82.1616 62.6773 86.2478 62.9868 87.1033C63.2965 87.9586 63.8556 89.1534 64.229 89.7585C64.8991 90.8436 66.4067 92.146 66.9928 92.146C67.2314 92.146 67.2936 92.8119 67.2936 95.3727C67.2936 99.0481 67.5111 99.8692 68.6729 100.583C69.3821 101.018 69.6961 101.033 76.8441 100.976L84.2776 100.917L84.9216 100.148L85.5653 99.3792V95.875V92.371L87.0946 90.8707C88.8471 89.1514 89.9252 87.5609 90.765 85.4547C91.852 82.7294 91.9159 82.0952 91.9159 74.0499C91.9159 65.6801 91.909 65.636 90.4296 64.5864C89.4849 63.916 87.3709 63.7355 86.5723 64.2571C86.0293 64.6117 85.9978 64.5999 85.2418 63.7662C84.0211 62.4197 82.1363 62.0816 80.7436 62.9588C80.3091 63.2324 80.1861 63.1824 79.3525 62.3922C78.1432 61.246 76.8178 61.0142 74.9254 61.6184C74.4325 61.7758 74.424 61.7469 74.424 59.9138V58.0491L76.1509 56.7293C84.9882 49.9758 91.0311 39.9043 93.485 27.8379C94.1664 24.4878 94.17 23.5061 93.5053 22.0837C92.2706 19.4415 89.6165 18.4703 86.2338 19.4226C84.3902 19.9417 81.8232 20.0912 80.4187 19.7612C78.182 19.2354 75.8149 17.7882 73.67 15.6344C73.194 15.1566 72.5423 14.5913 72.2216 14.3786C71.5527 13.9343 69.6587 13.8617 68.9648 14.2538ZM25.4887 15.8607C25.4203 16.0379 25.3995 16.3636 25.4421 16.5845C25.5156 16.9651 26.0745 16.986 36.2124 16.986H46.905V16.3198V15.6537L36.2588 15.596C27.1229 15.5465 25.5952 15.584 25.4887 15.8607ZM72.7087 17.0512C76.6084 20.7193 79.7159 21.9558 83.963 21.5291C84.9708 21.4278 86.3648 21.18 87.0607 20.9787C90.0069 20.1251 92.2501 21.6084 92.2501 24.4096C92.2501 26.0209 91.2487 30.5154 90.1435 33.8644C87.9021 40.6564 84.4938 46.3202 79.6765 51.2579C77.6521 53.333 74.9087 55.7317 74.5595 55.7317C74.4851 55.7317 74.424 55.0283 74.424 54.1685C74.424 51.7028 73.457 50.2545 71.4513 49.7162C70.2503 49.3941 69.0987 49.7391 67.9632 50.7611C67.0407 51.5918 66.9513 51.8509 66.7249 54.3511L66.5785 55.9679L65.3204 54.925C56.5482 47.6517 51.046 37.8489 48.8935 25.6583C48.5238 23.5654 48.7324 22.4581 49.6731 21.5207C50.6656 20.5317 51.7684 20.3518 53.6016 20.8794C54.453 21.1245 55.9969 21.4125 57.0326 21.5193C61.304 21.9601 64.2883 20.7859 68.2876 17.0908C69.4552 16.0119 70.1362 15.5427 70.5339 15.5427C70.9332 15.5427 71.587 15.9963 72.7087 17.0512ZM21.5027 24.6478C21.2576 24.7438 20.7563 25.1414 20.3886 25.5316C20.021 25.9219 19.447 26.4368 19.1132 26.6759C18.5066 27.1105 18.506 27.1105 17.8228 26.6071C17.0598 26.0449 16.4326 26.2154 16.3116 27.0179C16.2454 27.4566 18.0059 29.3091 18.489 29.3091C18.9055 29.3091 22.7283 25.8031 22.7283 25.421C22.7283 24.9365 21.9767 24.4624 21.5027 24.6478ZM25.5058 26.4353C25.4258 26.5643 25.4218 26.914 25.4969 27.2124L25.6335 27.7548H34.5381H43.4427L43.5793 27.2124C43.6544 26.914 43.6504 26.5643 43.5704 26.4353C43.3676 26.1082 25.7086 26.1082 25.5058 26.4353ZM80.3289 27.8774C79.9613 28.0655 77.1028 30.7626 73.9768 33.8711C70.8508 36.9796 68.2361 39.5229 68.1662 39.5229C68.0964 39.5229 66.5431 38.0161 64.7141 36.1745C62.8852 34.3327 61.1179 32.6841 60.787 32.5109C59.4804 31.8264 57.5503 32.4423 56.8829 33.7565C56.5106 34.4899 56.5255 35.6345 56.9172 36.3699C57.0928 36.6997 59.3999 39.1177 62.0442 41.7433L66.8517 46.5171H68.1896H69.5274L76.9892 39.0719L84.4512 31.627L84.4434 30.5234C84.439 29.9166 84.3068 29.1892 84.1497 28.9072C83.4552 27.6598 81.6864 27.1831 80.3289 27.8774ZM82.7702 30.0634C82.9741 30.632 82.6768 30.9642 75.974 37.6578C72.1189 41.5077 68.7825 44.7583 68.5599 44.8813C67.9609 45.2128 67.5723 44.8929 62.9322 40.2461C57.9776 35.2846 57.9754 35.2815 58.4714 34.527C59.2437 33.3526 59.7353 33.6513 63.9512 37.8576C66.0932 39.9947 67.9979 41.7433 68.184 41.7433C68.3701 41.7433 71.279 38.9873 74.6484 35.619C78.0178 32.2507 80.9751 29.4159 81.2202 29.3198C81.868 29.0655 82.5258 29.3813 82.7702 30.0634ZM20.1658 36.1923C19.3754 36.925 18.6414 37.5245 18.5347 37.5245C18.4282 37.5245 18.1592 37.3247 17.9375 37.0805C17.2811 36.3575 16.2663 36.637 16.2663 37.5407C16.2663 37.9264 18.0948 39.7449 18.4826 39.7449C18.8308 39.7449 22.7283 36.1652 22.7283 35.8453C22.7283 35.5106 22.1253 34.8601 21.8154 34.8601C21.6986 34.8601 20.9562 35.4596 20.1658 36.1923ZM25.7387 36.7183C25.4441 36.933 25.3761 37.1693 25.4851 37.6009L25.6335 38.1906H34.5381H43.4427L43.5911 37.6009C43.8814 36.4488 43.7005 36.4252 34.5381 36.4252C27.9353 36.4252 26.0549 36.4878 25.7387 36.7183ZM20.041 47.2139C18.8879 48.3098 18.6365 48.4575 18.3145 48.227C17.3992 47.5718 16.9569 47.4437 16.6073 47.7328C16.4196 47.888 16.2663 48.1895 16.2663 48.4033C16.2663 48.8048 18.0866 50.6248 18.4881 50.6248C18.7219 50.6248 21.9219 47.8882 22.4925 47.2003C22.7278 46.9165 22.7515 46.7138 22.5812 46.4429C22.1026 45.682 21.4419 45.8825 20.041 47.2139ZM25.4887 47.8342C25.4203 48.0114 25.3995 48.3371 25.4421 48.5581C25.5156 48.9386 26.0745 48.9595 36.2124 48.9595H46.905V48.2934V47.6273L36.2588 47.5696C27.1229 47.52 25.5952 47.5576 25.4887 47.8342ZM71.9674 51.9015L72.6372 52.5121L72.7216 63.9103C72.7943 73.7153 72.8533 75.3553 73.1434 75.6443C73.4055 75.9057 73.5826 75.9261 73.9385 75.7365C74.3788 75.5016 74.3988 75.2784 74.4659 69.8483C74.5343 64.2893 74.5432 64.1958 75.0544 63.654C75.6966 62.9733 76.5418 62.7859 77.483 63.1149C78.7796 63.5686 78.8806 64.0983 78.8806 70.4482C78.8806 75.3386 78.9285 76.1444 79.2335 76.3968C79.4893 76.6084 79.6885 76.6244 79.9577 76.4557C80.2819 76.2521 80.343 75.5504 80.4403 70.9176C80.5181 67.2109 80.6373 65.4634 80.8354 65.1179C81.4529 64.0415 82.9213 63.8454 83.8616 64.7136L84.4512 65.2583V70.8039C84.4512 75.5493 84.5018 76.3999 84.8013 76.6986C84.994 76.8904 85.2748 77.0474 85.4252 77.0474C86.1565 77.0474 86.2338 76.5314 86.2338 71.657V66.7994L86.9125 66.1231C87.4993 65.5387 87.7036 65.4645 88.4166 65.5776C88.9091 65.6557 89.4443 65.9404 89.7433 66.2834C90.2407 66.8538 90.2447 66.9136 90.2409 73.8958C90.2365 81.9707 90.1032 82.9836 88.6586 85.929C87.9124 87.4499 87.3711 88.1704 85.8693 89.6408L84.0056 91.465V95.0252C84.0056 98.2892 83.9686 98.622 83.5599 99.0292C83.1345 99.4531 82.8172 99.4733 76.5906 99.4733C71.0467 99.4733 69.9922 99.4214 69.5715 99.1276C69.0947 98.7948 69.076 98.6484 69.0728 95.1864C69.0708 93.2089 68.9922 91.4699 68.8979 91.3221C68.8035 91.1742 68.2615 90.8482 67.6933 90.5978C66.4526 90.0509 65.767 89.2849 65.0845 87.6824C62.5369 81.7022 57.6294 69.2035 57.5512 68.4965C57.4262 67.3654 58.0715 66.4675 59.1544 66.265C60.5459 66.005 60.9354 66.4606 64.0325 71.9712C66.7231 76.7585 66.9355 77.0678 67.4863 77.0041L68.0735 76.9364L68.2098 73.2728C68.2847 71.2578 68.3614 65.8622 68.3801 61.2827C68.4166 52.3954 68.4492 52.1191 69.5263 51.576C70.4165 51.1273 71.238 51.237 71.9674 51.9015ZM58.2548 54.6446C58.1713 54.7794 58.0902 56.3625 58.0746 58.1628C58.0532 60.6441 58.1203 61.5251 58.352 61.8036C58.7328 62.2608 58.9235 62.2641 59.3674 61.822C59.6531 61.5371 59.7175 60.8874 59.7175 58.2874C59.7175 56.5355 59.6566 54.9439 59.5822 54.7507C59.428 54.3506 58.4839 54.2751 58.2548 54.6446ZM19.6575 57.2131C19.5007 57.276 19.123 57.8178 18.8184 58.417C18.376 59.2863 18.151 59.5064 17.7038 59.5064C16.769 59.5064 15.611 60.1094 15.379 60.7169C15.1072 61.4297 15.3637 62.078 16.2538 62.9273C16.8889 63.533 16.9219 63.6454 16.7913 64.7527C16.605 66.3316 17.0462 67.0557 18.1949 67.0557C18.6372 67.0557 19.3313 66.851 19.7375 66.6009L20.4757 66.1462L21.3956 66.6138C22.5598 67.2056 23.5543 67.1225 24.1022 66.3878C24.4552 65.9144 24.4864 65.6646 24.3106 64.7265C24.1065 63.6381 24.1158 63.609 24.9757 62.6795C25.8583 61.7254 26.0261 61.1412 25.6297 60.4032C25.3822 59.9422 24.2941 59.5064 23.3905 59.5064C22.923 59.5064 22.7174 59.3503 22.5017 58.8311C21.9916 57.6044 21.4185 57.0624 20.6509 57.0815C20.2616 57.091 19.8146 57.1503 19.6575 57.2131ZM33.0271 57.208C32.8702 57.2738 32.4977 57.808 32.1989 58.3951C31.6835 59.4087 31.5992 59.4704 30.5344 59.6165C29.7117 59.7291 29.2936 59.9207 28.9672 60.3343C28.3268 61.1457 28.4104 61.6153 29.3837 62.6753C30.2186 63.5845 30.2422 63.6545 30.1355 64.8979C30.0493 65.902 30.1072 66.2719 30.402 66.5965C30.9909 67.2449 31.5248 67.2706 32.7421 66.7086L33.8696 66.188L34.9971 66.7086C36.2166 67.2715 36.7481 67.2451 37.341 66.5923C37.6485 66.2537 37.6951 65.9202 37.5839 64.8586C37.4469 63.5528 37.4518 63.5384 38.3317 62.6615C39.3248 61.6719 39.4222 61.1579 38.772 60.3343C38.4467 59.922 38.0278 59.7291 37.2156 59.6178C36.1565 59.4728 36.0754 59.4118 35.4882 58.3202C34.9394 57.2995 34.7874 57.1703 34.0924 57.1317C33.6635 57.1079 33.1842 57.1423 33.0271 57.208ZM46.3967 57.2131C46.2398 57.276 45.869 57.8042 45.5727 58.3868C45.0664 59.3825 44.9717 59.4531 43.9948 59.5628C41.9513 59.7923 41.4283 61.2973 42.876 62.7825C43.6325 63.5586 43.6611 63.6452 43.5291 64.7634C43.3444 66.3309 43.7885 67.0557 44.9341 67.0557C45.3764 67.0557 46.0705 66.851 46.4767 66.6009L47.2149 66.1462L48.1347 66.6138C49.299 67.2056 50.2935 67.1225 50.8414 66.3878C51.1908 65.9191 51.2249 65.661 51.0562 64.7618C50.8612 63.7215 50.8793 63.666 51.7216 62.6964C52.2018 62.1433 52.587 61.4656 52.587 61.1741C52.587 60.2586 51.4762 59.5064 50.1244 59.5064C49.584 59.5064 49.4146 59.3665 49.1277 58.6819C48.9376 58.2283 48.6198 57.6788 48.4217 57.4607C48.079 57.0835 47.0384 56.9562 46.3967 57.2131ZM21.1603 59.9342C21.6059 60.8051 21.7552 60.8994 23.1182 61.1728C23.5167 61.2527 23.8424 61.3877 23.8424 61.473C23.8424 61.5582 23.5294 61.9017 23.1468 62.2361C22.4941 62.807 22.4571 62.92 22.5523 64.0619C22.608 64.7316 22.6229 65.2794 22.5855 65.2794C22.548 65.2794 22.0841 65.0695 21.5544 64.8133C20.5379 64.321 20.4998 64.3266 18.6372 65.2387C18.5316 65.2905 18.5146 64.8304 18.5995 64.2165C18.7464 63.1516 18.7161 63.059 17.9413 62.2041L17.1289 61.3082L17.979 61.1594C19.127 60.9587 19.7081 60.5613 20.0472 59.7455C20.2034 59.3698 20.4174 59.0623 20.5225 59.0623C20.6277 59.0623 20.9147 59.4546 21.1603 59.9342ZM34.3224 59.7455C34.6598 60.557 35.2427 60.9587 36.3684 61.1552L37.196 61.2998L36.4297 62.3C35.7409 63.1991 35.6772 63.4007 35.7997 64.2908L35.9359 65.2811L34.8873 64.8191L33.8386 64.3568L32.8537 64.8182C32.3123 65.0718 31.8312 65.2794 31.7851 65.2794C31.7389 65.2794 31.7782 64.8602 31.8722 64.3479C32.0825 63.2015 31.8796 62.632 30.9972 61.8922L30.3146 61.32L31.2565 61.1645C32.5603 60.9494 32.9037 60.7291 33.3288 59.8363C33.7818 58.8853 33.9581 58.8691 34.3224 59.7455ZM47.8248 59.7839C48.3014 60.7029 48.7007 60.9882 49.7431 61.1543C50.2043 61.2278 50.5816 61.3262 50.5816 61.3728C50.5816 61.4194 50.2701 61.79 49.8895 62.1959C49.2573 62.8705 49.2061 63.0359 49.2957 64.113C49.3496 64.7614 49.3347 65.2641 49.2625 65.2301C49.1903 65.1961 48.6608 64.9821 48.0859 64.7542C47.0496 64.3437 47.034 64.3441 46.2779 64.8098C45.8586 65.068 45.4392 65.2794 45.3458 65.2794C45.2527 65.2794 45.2425 64.7833 45.3231 64.1772C45.4619 63.134 45.4269 63.0274 44.6689 62.1915L43.8681 61.3082L44.7181 61.1594C45.8661 60.9587 46.4473 60.5613 46.7864 59.7455C47.1472 58.8773 47.3588 58.8853 47.8248 59.7839ZM7.35327 78.2797C7.35327 80.0052 6.13018 81.2662 4.45653 81.2662C2.77686 81.2662 1.55978 79.9632 1.55978 78.1647V77.4915H4.45653H7.35327V78.2797Z" fill="url(#paint0_linear_37_45)"/>
<defs>
<linearGradient id="paint0_linear_37_45" x1="8.30866" y1="20.4698" x2="74.476" y2="21.6341" gradientUnits="userSpaceOnUse">
<stop stop-color="#0A64B0"/>
<stop offset="1" stop-color="#2183C6"/>
</linearGradient>
</defs>
</svg>
