<svg width="115" height="88" viewBox="0 0 115 88" fill="none" xmlns="http://www.w3.org/2000/svg">
<path fill-rule="evenodd" clip-rule="evenodd" d="M75.4781 0.616115C81.6833 2.51868 87.2262 7.42725 89.9862 13.4643C92.106 18.1008 92.106 26.904 89.9862 31.5405C83.7104 45.2673 66.6468 49.3817 54.8459 40.0143C49.6795 35.9127 46.7206 29.5355 46.7206 22.5024C46.7206 12.8857 52.3012 4.71554 61.1859 1.32501C64.895 -0.0906342 72.0207 -0.443649 75.4781 0.616115ZM61.5745 4.93179C54.3204 8.06812 50.2114 14.4217 50.2114 22.5024C50.2114 30.6977 54.2541 36.8464 61.879 40.2484C65.7249 41.9648 72.599 42.1138 76.2909 40.5606C85.9727 36.4877 91.0094 24.266 86.8298 14.9838C82.2922 4.90458 71.5373 0.623993 61.5745 4.93179ZM69.9929 6.64746C70.1976 7.18236 71.3548 7.81821 72.564 8.06167C74.9996 8.55074 77.6099 12.0544 77.6142 14.8406C77.6192 17.7836 75.6663 20.481 72.6532 21.6918L69.7741 22.849V27.8671C69.7741 31.7367 70.0072 32.8852 70.7915 32.8852C71.9815 32.8852 74.7651 29.557 74.7651 28.1342C74.7651 27.0894 75.4531 26.9169 77.0966 27.5506C79.7618 28.5781 75.7675 34.7248 71.9344 35.4945C70.2568 35.8318 69.7741 36.3087 69.7741 37.6291C69.7741 38.5643 69.4532 39.3297 69.0611 39.3297C68.6689 39.3297 68.348 38.5242 68.348 37.5396C68.348 36.1984 67.9723 35.7494 66.8507 35.7494C66.0272 35.7494 64.2625 34.6539 62.9292 33.3148C60.3011 30.6755 59.745 27.4668 61.3171 24.0025C62.0672 22.3492 65.7356 19.9962 67.5645 19.9962C68.0543 19.9962 68.348 18.2325 68.348 15.2895C68.348 11.1944 68.1862 10.613 67.1003 10.8185C66.4137 10.9481 65.536 11.7773 65.1488 12.6609C64.3916 14.3902 61.218 14.9487 61.218 13.3533C61.218 11.672 63.5182 9.11499 65.9459 8.09604C67.2671 7.54182 68.348 6.76991 68.348 6.3818C68.348 5.33063 69.5651 5.52683 69.9929 6.64746ZM69.7741 14.5835C69.7741 18.9966 70.3052 19.6861 72.5098 18.1359C75.1151 16.3028 74.1091 10.6875 71.1751 10.6875C69.9537 10.6875 69.7741 11.188 69.7741 14.5835ZM65.449 24.3176C62.7225 25.7834 64.3303 32.8852 67.3891 32.8852C68.0942 32.8852 68.348 31.6522 68.348 28.2308C68.348 23.439 67.988 22.9528 65.449 24.3176ZM21.0047 35.3198C22.338 36.6588 23.4289 38.4311 23.4289 39.2581C23.4289 40.7246 23.7184 40.7618 35.16 40.7618H46.8917L53.9732 45.0582L61.0548 49.3545L71.297 49.356C79.6384 49.3567 81.9921 49.5894 83.9835 50.6091C87.3196 52.3169 89.3231 55.2534 89.2369 58.3081C89.1984 59.6851 89.2362 60.8114 89.3217 60.8114C89.408 60.8114 93.0614 59.2003 97.4414 57.2312C106.275 53.2599 108.102 52.9835 111.516 55.1023C115.519 57.587 116.19 62.7942 112.916 65.9592C112.032 66.8141 101.722 72.2232 90.0062 77.9789C70.6375 87.4946 68.4778 88.3939 66.209 87.8906C62.4964 87.0678 25.0817 80.145 24.348 80.145C24 80.145 23.3084 81.2756 22.8107 82.6583C21.4981 86.3031 19.0261 87.3055 11.3542 87.3055C5.24595 87.3055 4.7932 87.1974 2.58503 85.2168L0.256363 83.1288L0.0581436 61.4079C-0.199959 33.0721 -0.132935 32.9167 12.2704 32.896C18.5014 32.8852 18.6112 32.916 21.0047 35.3198ZM4.76894 37.6506C3.56112 38.7483 3.46487 40.4103 3.46487 60.1555C3.46487 78.5818 3.61674 81.6272 4.58499 82.6003C5.98961 84.0102 17.655 84.2251 19.0083 82.866C19.6365 82.2351 19.8639 76.1587 19.8639 59.988C19.8639 39.773 19.762 37.9091 18.6162 37.2388C17.9295 36.8371 14.8266 36.4992 11.7207 36.487C7.44341 36.4705 5.75645 36.7534 4.76894 37.6506ZM23.4289 60.4534C23.4289 69.3146 23.6328 76.5647 23.8817 76.5647C24.1312 76.5647 33.9307 78.3369 45.6596 80.503C57.3878 82.6691 67.4497 84.4413 68.0186 84.4413C68.5883 84.4413 78.5062 79.8013 90.0597 74.1294C108.804 64.928 111.119 63.6048 111.561 61.8361C111.951 60.2751 111.714 59.5755 110.444 58.5423C109.557 57.8212 108.125 57.2312 107.262 57.2312C106.399 57.2312 101.06 59.3199 95.3979 61.8719L85.1036 66.5134L68.8329 66.5263L52.5629 66.5399L52.7903 64.9288C53.0171 63.3291 53.1269 63.3148 68.0621 62.9596C84.6159 62.5658 85.4601 62.3409 85.4601 58.3289C85.4601 54.2144 84.2416 53.7819 71.9131 53.5241L60.8615 53.2928L53.7315 48.8819L46.6015 44.4703L35.0152 44.4066L23.4289 44.3421V60.4534Z" fill="url(#paint0_linear_37_59)"/>
<defs>
<linearGradient id="paint0_linear_37_59" x1="104.835" y1="17.8351" x2="23.9101" y2="19.8345" gradientUnits="userSpaceOnUse">
<stop stop-color="#0A64B0"/>
<stop offset="1" stop-color="#2183C6"/>
</linearGradient>
</defs>
</svg>
