<svg width="101" height="101" viewBox="0 0 101 101" fill="none" xmlns="http://www.w3.org/2000/svg">
<path fill-rule="evenodd" clip-rule="evenodd" d="M47.7841 2.65579C46.7781 4.11625 45.955 5.71408 45.955 6.20645C45.955 7.35785 47.2695 7.86487 48.2169 7.07859C48.8507 6.55288 48.9709 7.25433 49.0941 12.1983L49.2375 17.9275H50.5H51.7625L51.9059 12.1983C52.0291 7.25433 52.1493 6.55288 52.7831 7.07859C53.7305 7.86487 55.045 7.35785 55.045 6.20645C55.045 4.82982 51.508 0 50.5 0C49.9985 0 48.8184 1.15342 47.7841 2.65579ZM14.9334 14.9334C14.4188 15.4485 14.2693 16.2181 14.4703 17.3159C15.4025 22.4013 15.4303 22.4705 16.5963 22.6386C17.4255 22.7583 17.8275 22.5038 18.0295 21.7307C18.28 20.7742 18.7385 21.0731 22.2321 24.4728C26.1156 28.2522 27.2917 28.7532 27.9932 26.9251C28.1886 26.416 26.9917 24.8197 24.4728 22.2321C21.0731 18.7385 20.7742 18.28 21.7307 18.0295C22.5038 17.8275 22.7583 17.4255 22.6386 16.5963C22.4705 15.4303 22.4013 15.4025 17.3159 14.4703C16.2181 14.2693 15.4485 14.4188 14.9334 14.9334ZM81.5575 14.8263C78.9759 15.3172 78.5028 15.5762 78.3614 16.5756C78.2407 17.426 78.4906 17.826 79.2693 18.0295C80.2258 18.28 79.9269 18.7385 76.5272 22.2321C74.0083 24.8197 72.8114 26.416 73.0068 26.9251C73.7083 28.7532 74.8844 28.2522 78.7679 24.4728C82.1867 21.1459 82.724 20.7893 82.9599 21.6908C83.2598 22.8371 85.2299 23.1376 85.602 22.0938C85.7258 21.7468 86.0273 20.1399 86.2727 18.5239C86.6252 16.1989 86.5671 15.4343 85.9954 14.8627C85.598 14.4652 85.1188 14.1647 84.9304 14.195C84.7415 14.2253 83.224 14.5092 81.5575 14.8263ZM46.1302 23.2517C40.1531 24.3107 33.5426 27.8881 30.0076 31.9776C20.2904 43.2184 20.7444 59.6294 31.0575 69.9425C41.8014 80.6859 59.1986 80.6859 69.9425 69.9425C80.6859 59.1986 80.6859 41.8014 69.9425 31.0575C63.8073 24.9223 54.2971 21.8049 46.1302 23.2517ZM60.7555 28.3997C66.0373 30.9161 70.0748 34.9384 72.5503 40.152C74.1335 43.4855 74.4123 44.6339 74.6254 48.7032C74.7774 51.609 74.6264 54.44 74.231 56.1181C73.5472 59.0173 71.3883 63.5795 69.7198 65.65L68.7022 66.9125L68.6911 63.1836C68.6851 61.1328 68.4204 58.5891 68.1038 57.5306C67.3483 55.0107 65.0142 52.2266 62.6412 51.0156L60.7399 50.046L59.3789 51.4666L58.0179 52.8871L59.5203 53.1876C61.8064 53.6451 64.4143 56.2196 65.1031 58.6992C65.4324 59.8834 65.6328 62.8962 65.5495 65.394L65.3975 69.9354L62.62 71.5944C58.6401 73.9714 56.4848 74.485 50.5 74.485C44.5147 74.485 42.3599 73.9709 38.38 71.5944L35.6025 69.9354L35.4571 65.2657C35.3773 62.6978 35.551 59.7092 35.8429 58.6244C36.4625 56.3247 39.2526 53.633 41.4797 53.1876L42.9821 52.8871L41.6211 51.4666L40.2601 50.046L38.3588 51.0156C35.9858 52.2266 33.6517 55.0107 32.8962 57.5306C32.5796 58.5891 32.3149 61.1328 32.3089 63.1836L32.2978 66.9125L31.2635 65.65C30.6954 64.9556 29.3935 62.6831 28.3714 60.6C26.5307 56.8494 26.5125 56.7509 26.5125 50.5C26.5125 44.2537 26.5322 44.1461 28.3951 40.2445C31.4211 33.9072 36.8165 29.2127 43.6825 26.9428C44.9809 26.5135 47.6871 26.3191 51.2575 26.3984C56.5024 26.5145 57.0327 26.6261 60.7555 28.3997ZM45.3864 34.7768C40.4677 37.8962 39.6349 44.3329 43.5694 48.8143C47.3796 53.1533 53.6204 53.1533 57.4306 48.8143C59.3047 46.6797 60.3005 43.5209 59.8183 41.2413C58.3603 34.3476 51.1535 31.1196 45.3864 34.7768ZM2.62701 47.7942C1.17564 48.8103 0 50.0258 0 50.5101C0 51.5085 4.84043 55.045 6.20645 55.045C7.35785 55.045 7.86487 53.7305 7.07859 52.7831C6.55288 52.1493 7.25433 52.0291 12.1983 51.9059L17.9275 51.7625V50.5V49.2375L12.1983 49.0941C7.25433 48.9709 6.55288 48.8507 7.07859 48.2169C7.87295 47.2599 7.35381 45.955 6.17817 45.955C5.67014 45.955 4.07182 46.7827 2.62701 47.7942ZM93.6053 46.7191C93.4437 47.1392 93.5861 47.8134 93.9214 48.2169C94.4471 48.8507 93.7457 48.9709 88.8017 49.0941L83.0725 49.2375V50.5V51.7625L88.8017 51.9059C93.7457 52.0291 94.4471 52.1493 93.9214 52.7831C93.1351 53.7305 93.6422 55.045 94.7936 55.045C96.1702 55.045 101 51.508 101 50.5C101 49.492 96.1702 45.955 94.7936 45.955C94.3012 45.955 93.7664 46.2989 93.6053 46.7191ZM49.343 54.8551C49.1461 55.0521 48.985 55.6298 48.985 56.1393C48.985 56.6484 48.7477 57.065 48.4573 57.065C47.3488 57.065 45.45 59.5663 45.45 61.0262C45.45 63.0765 46.7746 64.49 49.7425 65.6081C52.5084 66.6494 53.0548 67.8321 50.8853 68.0816C49.9152 68.1932 49.1446 67.8543 48.3022 66.9453C47.6417 66.2328 46.7231 65.65 46.26 65.65C44.1203 65.65 45.042 69.1921 47.5144 70.4702C48.2527 70.852 48.9779 71.6282 49.1259 72.1948C49.485 73.5669 51.5115 73.5815 51.8685 72.215C52.014 71.6595 52.3438 71.205 52.6018 71.205C53.6603 71.205 55.55 68.6664 55.55 67.2438C55.55 65.2056 54.2385 63.832 51.2575 62.7488C48.3341 61.6863 47.8846 60.4298 50.3424 60.1915C51.6095 60.0687 52.1337 60.3111 52.7993 61.3277C53.7643 62.8003 54.6354 62.9644 55.5626 61.8474C56.4509 60.7767 55.4924 58.7896 53.5492 57.6745C52.726 57.2019 51.9872 56.3605 51.9074 55.804C51.7635 54.7986 50.0379 54.1602 49.343 54.8551ZM22.2321 76.5272C18.7385 79.9269 18.28 80.2258 18.0295 79.2693C17.826 78.4911 17.426 78.2412 16.5776 78.3614C15.5656 78.5048 15.3283 78.9684 14.8268 81.7807C13.9466 86.7141 14.1981 86.9655 19.19 86.1404C22.0488 85.6677 22.4937 85.446 22.6386 84.4244C22.7593 83.574 22.5094 83.174 21.7307 82.9705C20.7742 82.72 21.0731 82.2615 24.4728 78.7679C26.9917 76.1803 28.1886 74.584 27.9932 74.0749C27.2917 72.2468 26.1156 72.7478 22.2321 76.5272ZM73.5134 73.5134C73.077 73.9502 72.72 74.4304 72.72 74.5814C72.72 74.7324 74.435 76.6186 76.5317 78.7729C79.9274 82.2625 80.2263 82.72 79.2693 82.9705C78.4906 83.174 78.2407 83.574 78.3614 84.4244C78.5063 85.446 78.9512 85.6677 81.81 86.1404C86.7842 86.9625 86.9625 86.7842 86.1404 81.81C85.6677 78.9512 85.446 78.5063 84.4244 78.3614C83.574 78.2407 83.174 78.4906 82.9705 79.2693C82.72 80.2263 82.2625 79.9274 78.7729 76.5317C76.6186 74.435 74.7324 72.72 74.5814 72.72C74.4304 72.72 73.9502 73.077 73.5134 73.5134ZM49.343 83.1351C49.1461 83.3321 48.985 85.9828 48.985 89.0259C48.985 93.8659 48.8911 94.4805 48.2341 93.9356C47.272 93.1372 45.955 93.6331 45.955 94.7936C45.955 96.1702 49.492 101 50.5 101C51.508 101 55.045 96.1702 55.045 94.7936C55.045 93.6422 53.7305 93.1351 52.7831 93.9214C52.1493 94.4471 52.0291 93.7457 51.9059 88.8017C51.7726 83.474 51.6903 83.0624 50.7318 82.925C50.1647 82.8437 49.54 82.9387 49.343 83.1351Z" fill="url(#paint0_linear_37_118)"/>
<defs>
<linearGradient id="paint0_linear_37_118" x1="8.92739" y1="20.4698" x2="80.0186" y2="21.8139" gradientUnits="userSpaceOnUse">
<stop stop-color="#0A64B0"/>
<stop offset="1" stop-color="#2183C6"/>
</linearGradient>
</defs>
</svg>
